<svg width="221" height="58" viewBox="0 0 221 58" fill="none" xmlns="http://www.w3.org/2000/svg">
<g clip-path="url(#clip0)">
<path d="M0 37C0 25.5 9.4 16.1 20.9 16.1C22.1 16.1 23.4 16.2 24.6 16.4L23.8 17.5C20.8 19.4 21 19.8 19.7 22.7C18.9 24.6 16.8 25.8 16.2 27.9L16 28C12.8 29.5 9.9 34.7 13.7 37.3C14.6 37.9 15.3 38.3 15.8 38.5L5.2 50.8C2 47.1 0 42.3 0 37ZM41.2 32C41.6 33.6 41.8 35.3 41.8 37C41.8 48.5 32.4 57.9 20.9 57.9C17.9 57.9 15.1 57.3 12.5 56.1C15.1 54.2 19.8 50.8 24.2 47.6C30.5 43 37.5 37.6 39 35.8C39.9 34.7 40.6 33.4 41.2 32Z" fill="#009874"/>
<path d="M26.6 16.9C27.8 15.2 29.4 13 31 11.6C33.4 9.50002 38.8 9.70002 38.8 9.70002L38.7 9.20002C38.7 9.20002 33.9 4.70002 37.2 1.00002C37.7 0.500024 39.5 -0.799976 42.6 0.500024C43.7 1.00002 47 4.60002 47.4 5.30002C47.8 6.00002 47.8 6.30002 47.3 7.00002C46.8 7.70002 43.9 10.8 43.9 10.8C43.9 10.8 43.8 11.3 43.8 11.9V14C43.8 14 46.1 16 45.9 18.4C45.7 20.8 45.2 21.6 44.9 22.1C44.8 22.9 44.6 23.9 44.6 23.9C44.6 23.9 41.1 28.3 39.8 29.6C39.6 29.8 39.3 32 37.2 34.6C34.8 37.6 10.2 55.1 10.2 55.1C8.80002 54.3 7.50002 53.3 6.40002 52.2L30.6 24.3C30.6 24.3 30.7 22.9 28.1 23.6C27.2 23.9 25.5 26.5 25.1 26.9C24.7 27.3 22.9 28.4 22.2 28.8C21.5 29.2 20.8 30.3 20.4 30.7C20 31.1 19.4 30.8 19.4 30.8C19.4 30.8 20.6 33.4 20.2 34.1C19.6 35.2 18.7 34.7 17.8 35.3C17.1 35.7 16.8 36.5 16.6 36.6C16.1 36.9 15.2 36.1 14.6 35.7C14 35.3 13.4 34.6 13.8 33.6C14.2 32.6 14.5 31.5 15.2 30.8C15.9 30.1 17.4 29.8 17.7 29.2C18 28.6 17.4 28.8 18.6 27.3C19.8 25.8 21 24.2 21.3 23.6C21.6 22.9 22 20.7 24 19.7C24.6 19.4 24.9 19.1 24.9 19.1C25.5 18.6 26 17.9 26.6 16.9ZM40.9 3.60002C40.9 3.90002 41.2 4.20002 41.5 4.20002C41.8 4.20002 42.1 3.90002 42.1 3.60002C42.1 3.30002 41.8 3.00002 41.5 3.00002C41.2 3.00002 40.9 3.30002 40.9 3.60002Z" fill="#002631"/>
<path fill-rule="evenodd" clip-rule="evenodd" d="M55.3 30C55.7 27.3 58.2 25.2001 60.9 25.2001C63.6 25.2001 65.9 27.4 66.3 30H55.3ZM69.6 32.7001C69.9 27.2001 66.8 22.3 60.9 22.3C55.2 22.3 52 26.8001 52 32.2001C52 37.5001 55.5 41.7001 61 41.7001C64.8 41.7001 67.7 39.8 69.5 36.5L66.8 35C65.6 37.2 63.9 38.8 61.2 38.8C57.6 38.8 55.2 36.1 55.2 32.7001H69.6Z" fill="#00374D"/>
<path fill-rule="evenodd" clip-rule="evenodd" d="M83.9 25.7001C83.1 23.8001 81.1 22.3 79 22.3C76 22.3 73.5 24.4 73.5 27.5C73.5 33.3 81.8 31.9 81.8 36C81.8 37.7 80.5 38.8 78.8 38.8C76.7 38.8 75.8 37.6001 75 35.9001L72.2 37.1C73.2 40 75.6 41.8 78.7 41.8C82.1 41.8 84.9 39.3 84.9 35.8C84.9 32.7 82.8 31.4 80.6 30.5C78.4 29.6 76.3 29 76.3 27.3C76.3 26.1 77.5 25.3 78.6 25.3C79.7 25.3 80.7 26.2001 81.1 27.2001L83.9 25.7001Z" fill="#00374D"/>
<path fill-rule="evenodd" clip-rule="evenodd" d="M92.7 25.7001H96V22.8001H92.7V16.2001H89.6V22.8001H87.7V25.7001H89.6V41.2001H92.7V25.7001Z" fill="#00374D"/>
<path fill-rule="evenodd" clip-rule="evenodd" d="M101.8 22.8001H98.7V41.2001H101.8V32.0001C101.8 29.6001 102 25.2001 105.4 25.2001C106.2 25.2001 106.7 25.6001 107.3 26.0001L108.8 23.1001C107.9 22.6001 107 22.2001 106 22.2001C104 22.2001 103 23.3001 101.9 24.7001H101.8V22.8001Z" fill="#00374D"/>
<path fill-rule="evenodd" clip-rule="evenodd" d="M137.8 25.7001H141V22.8001H137.8V16.2001H134.6V22.8001H132.7V25.7001H134.6V41.2001H137.8V25.7001Z" fill="#009874"/>
<path fill-rule="evenodd" clip-rule="evenodd" d="M145.6 30C146 27.3 148.5 25.2001 151.2 25.2001C153.9 25.2001 156.2 27.4 156.6 30H145.6ZM159.8 32.7001C160.1 27.2001 157 22.3 151.1 22.3C145.4 22.3 142.2 26.8001 142.2 32.2001C142.2 37.5001 145.7 41.7001 151.2 41.7001C155 41.7001 157.9 39.8 159.7 36.5L157 35C155.8 37.2 154.1 38.8 151.4 38.8C147.8 38.8 145.4 36.1 145.4 32.7001H159.8Z" fill="#009874"/>
<path fill-rule="evenodd" clip-rule="evenodd" d="M177.8 24.2C176.2 23 174.1 22.4 172.1 22.4C166.7 22.4 162.3 26.6 162.3 32.1C162.3 37.7 166.5 41.8 172.1 41.8C174.3 41.8 176.1 41.1 177.9 39.9V35.7H177.8C176.3 37.7 174.4 38.9 171.8 38.9C168 38.9 165.5 35.7 165.5 32.1C165.5 28.4 168.2 25.3 172 25.3C174.5 25.3 176.3 26.6 177.7 28.4H177.8V24.2Z" fill="#009874"/>
<path fill-rule="evenodd" clip-rule="evenodd" d="M185.9 22.8H182.8V41.2001H185.9V32.5C185.9 29.2 186.2 25.2001 190.5 25.2001C194.1 25.2001 194.4 27.9 194.4 30.8V41.2001H197.5V30.3C197.5 26 196.3 22.3 191.2 22.3C188.9 22.3 187.3 23.3 186 25H185.9V22.8Z" fill="#009874"/>
<path fill-rule="evenodd" clip-rule="evenodd" d="M209.8 25.4001C206.8 26.1001 204.8 28.8001 204.8 32.0001C204.8 35.8001 207.5 38.8001 211.3 38.8001C215.2 38.8001 217.8 35.8001 217.8 32.0001C217.8 28.8001 215.8 26.1001 212.8 25.4001V22.5001C217.4 23.2001 220.9 27.2001 220.9 32.1001C220.9 37.5001 216.6 41.8001 211.2 41.8001C205.8 41.8001 201.5 37.5001 201.5 32.1001C201.5 27.2001 205 23.2001 209.6 22.5001V25.4001H209.8Z" fill="#009874"/>
<path d="M128.7 22.8H125.6V25.4H125.5C124 23.4 121.7 22.3 119.2 22.3C113.7 22.3 110.4 26.8 110.4 32C110.4 37.1 113.8 41.7001 119.2 41.7001C120.5 41.7001 121.6 41.5 122.7 41V38.1C121.9 38.6 120.8 38.9001 119.6 38.9001C115.7 38.9001 113.6 35.5 113.6 31.9C113.6 28.5 115.9 25.3 119.6 25.3C123.5 25.3 125.8 28.3 125.8 31.9C125.8 32.4 125.7 33 125.7 33.5V41.2001H128.8V22.8H128.7Z" fill="#00374D"/>
</g>
<defs>
<clipPath id="clip0">
<rect width="221" height="57.9" fill="white"/>
</clipPath>
</defs>
</svg>
